<?xml version="1.0" encoding="utf-8"?>
<!-- Generator: Adobe Illustrator 19.2.1, SVG Export Plug-In . SVG Version: 6.00 Build 0)  -->
<svg version="1.1" id="layer" xmlns="http://www.w3.org/2000/svg" xmlns:xlink="http://www.w3.org/1999/xlink" x="0px" y="0px"
	 viewBox="0 0 652 652" style="enable-background:new 0 0 652 652;" xml:space="preserve">
<style type="text/css">
	.st0{fill:#63636D;}
	.st1{fill:#079AD2;}
	.st2{fill:url(#SVGID_1_);}
	.st3{fill:url(#SVGID_2_);}
	.st4{fill:#FFFFFF;}
</style>
<g id="Ebene_2">
	<path class="st0" d="M286.3,380.6l2.9-13.9h6.1l-0.3,1.3h-4.5l-1,4.6h4.8l-0.3,1.3h-4.8l-1.1,5.2h5.3l-0.2,1.4L286.3,380.6
		L286.3,380.6z"/>
	<path class="st0" d="M299.4,377.8c0,0.2-0.1,0.4-0.1,0.6v0.3c0,0.3,0.1,0.6,0.3,0.8c0.2,0.2,0.6,0.4,0.9,0.3c0.5,0,1-0.2,1.3-0.4
		c0.5-0.3,0.8-0.7,1.1-1.2l1.7-7.7h1.4l-2.2,10.3h-1.3l0.2-1.1c-0.4,0.4-0.8,0.7-1.3,1c-0.5,0.2-0.9,0.3-1.4,0.3
		c-0.7,0-1.2-0.1-1.6-0.4c-0.4-0.4-0.6-0.8-0.6-1.3v-0.6c0-0.2,0-0.4,0.1-0.6l1.6-7.6h1.4L299.4,377.8z"/>
	<path class="st0" d="M308.5,380.6l2.2-10.3h1.3l-0.3,1.7c0.3-0.5,0.7-1,1.2-1.3c0.5-0.3,1-0.5,1.6-0.4h0.4l-0.2,1.4
		c-0.1,0-0.2,0-0.3-0.1h-0.2c-0.7,0-1.4,0.3-1.9,0.8c-0.6,0.7-1,1.5-1.1,2.4l-1.2,5.9L308.5,380.6L308.5,380.6z"/>
	<path class="st0" d="M317,377.5c0-0.9,0.1-1.8,0.3-2.7c0.2-0.8,0.4-1.7,0.8-2.5c0.3-0.7,0.8-1.3,1.3-1.8c0.5-0.4,1.2-0.6,1.9-0.6
		c0.9-0.1,1.8,0.3,2.5,0.9c0.6,0.7,0.9,1.6,0.9,2.6c0,0.9-0.1,1.9-0.3,2.8c-0.2,0.9-0.5,1.8-0.9,2.6c-0.3,0.7-0.8,1.3-1.3,1.7
		c-0.6,0.4-1.3,0.6-2,0.6c-1.1,0-1.9-0.3-2.4-0.9C317.2,379.4,316.9,378.4,317,377.5z M321.5,371.3c-0.4,0-0.8,0.1-1.1,0.4
		c-0.4,0.3-0.6,0.8-0.8,1.2c-0.4,0.7-0.6,1.5-0.7,2.4c-0.2,0.7-0.3,1.5-0.2,2.2c0,0.7,0.1,1.2,0.4,1.6c0.4,0.4,0.8,0.6,1.3,0.6
		c0.5,0,1-0.1,1.3-0.4c0.4-0.4,0.7-0.9,0.9-1.4c0.2-0.8,0.4-1.6,0.6-2.4c0.1-0.7,0.2-1.3,0.2-2c0-0.7-0.1-1.2-0.4-1.6
		C322.6,371.5,322,371.3,321.5,371.3L321.5,371.3z"/>
	<path class="st0" d="M331.1,371.3c0.3-0.4,0.6-0.7,1-1c0.4-0.2,0.9-0.3,1.3-0.3c0.7,0,1.4,0.3,1.9,0.9c0.5,0.8,0.7,1.7,0.7,2.7
		c0,2.1-0.4,3.8-1.2,5.2c-0.8,1.3-1.8,2-3.1,2c-0.5,0-1-0.1-1.3-0.4c-0.4-0.3-0.7-0.8-0.9-1.2l-1,4.9H327l2.9-13.9h1.3L331.1,371.3z
		 M333,371.2c-0.5,0-1,0.2-1.3,0.6c-0.4,0.5-0.7,1-0.9,1.6c-0.3,0.7-0.4,1.5-0.6,2.2c-0.1,0.6-0.2,1.3-0.2,1.9
		c0,0.6,0.1,1.1,0.4,1.6c0.3,0.4,0.7,0.6,1.2,0.6c0.4,0,0.8-0.1,1.1-0.4c0.3-0.4,0.6-0.9,0.9-1.3c0.3-0.7,0.5-1.5,0.6-2.2
		c0.1-0.7,0.2-1.5,0.2-2.2c0-0.6-0.1-1.1-0.4-1.6C333.8,371.4,333.4,371.2,333,371.2L333,371.2z"/>
	<path class="st0" d="M346.2,377.2c-0.2,1.1-0.6,2.1-1.2,2.8c-0.6,0.7-1.5,1-2.4,1c-0.8,0-1.7-0.3-2.2-0.9c-0.6-0.7-0.8-1.4-0.8-2.7
		c0-0.9,0.1-1.8,0.3-2.7c0.2-0.8,0.4-1.7,0.8-2.5c0.3-0.7,0.7-1.3,1.3-1.7c0.6-0.4,1.2-0.5,1.9-0.6c1,0,1.7,0.2,2.1,0.8
		c0.4,0.6,0.7,1.3,0.7,2.5c0,0.4,0,0.8-0.1,1.1c-0.1,0.4-0.1,0.8-0.2,1.2h-5c-0.1,0.4-0.1,0.7-0.1,1.1v0.8c0,0.6,0.1,1.2,0.4,1.7
		c0.3,0.4,0.8,0.6,1.2,0.6c0.5,0,1-0.2,1.3-0.6c0.4-0.5,0.6-1.2,0.8-1.8h1.1V377.2L346.2,377.2z M341.6,374.3h3.7
		c0-0.2,0.1-0.6,0.1-0.8V373c0-0.5-0.1-0.9-0.3-1.3c-0.3-0.3-0.7-0.5-1.1-0.4c-0.6,0-1.1,0.3-1.4,0.8
		C342.1,372.5,341.8,373.2,341.6,374.3L341.6,374.3z"/>
	<path class="st0" d="M354.9,379.4c-0.3,0.5-0.7,0.9-1.1,1.2c-0.4,0.2-0.9,0.4-1.3,0.3c-0.7,0-1.3-0.2-1.8-0.7
		c-0.4-0.4-0.7-1.1-0.7-2c0-0.8,0.2-1.6,0.7-2.2c0.4-0.6,1.2-0.9,2.2-1.1l1.7-0.4c0.4-0.1,0.8-0.3,1-0.7c0.3-0.4,0.4-0.9,0.3-1.4
		c0-0.3-0.2-0.6-0.4-0.8c-0.3-0.2-0.7-0.4-1.1-0.3c-0.6,0-1,0.1-1.2,0.4c-0.3,0.4-0.4,0.9-0.4,1.3h-1.2c0-0.8,0.3-1.6,0.9-2.2
		c0.6-0.6,1.2-0.8,2.2-0.8c0.8,0,1.5,0.2,2.1,0.6c0.5,0.4,0.7,1,0.7,1.7v0.6c0,0.2-0.1,0.4-0.1,0.8l-0.9,4.7c0,0.2-0.1,0.3-0.1,0.4
		v0.2c0,0.2,0.1,0.3,0.2,0.4c0.2,0.1,0.4,0.2,0.7,0.1l-0.2,1c-0.1,0.1-0.2,0.1-0.3,0.1h-0.4c-0.3,0-0.6-0.1-0.9-0.2
		c-0.2-0.2-0.3-0.5-0.3-0.8C354.8,379.7,354.9,379.6,354.9,379.4L354.9,379.4L354.9,379.4z M355.4,375.3c-0.2,0.1-0.3,0.1-0.6,0.2
		c-0.2,0.1-0.4,0.1-0.7,0.2l-0.8,0.2c-0.6,0.1-1.1,0.4-1.4,0.8c-0.3,0.3-0.4,0.9-0.4,1.6c-0.1,0.6,0.4,1.3,1,1.3c0.1,0,0.2,0,0.3,0
		c0.6,0,1.2-0.2,1.6-0.7c0.3-0.4,0.7-1.3,1-2.7L355.4,375.3L355.4,375.3z"/>
	<path class="st0" d="M361.9,380.6h-1.4l2.2-10.3h1.3l-0.2,1.2c0.4-0.4,0.8-0.8,1.4-1c0.5-0.2,0.9-0.3,1.4-0.3
		c0.7,0,1.2,0.1,1.6,0.4c0.4,0.4,0.6,0.8,0.6,1.3v0.6c0,0.2-0.1,0.3-0.1,0.6l-1.6,7.6h-1.4l1.6-7.5c0-0.2,0.1-0.3,0.1-0.6v-0.3
		c0-0.3-0.1-0.6-0.3-0.8c-0.2-0.2-0.6-0.4-0.9-0.3c-0.5,0-1,0.2-1.4,0.4c-0.4,0.4-0.8,0.8-1.1,1.2L361.9,380.6z"/>
	<path class="st0" d="M378.7,377.6h1.4v0.2c-0.1,0.9,0.5,1.7,1.3,1.8c0.2,0,0.3,0,0.5,0c1.1,0,1.9-0.9,1.9-1.9c0-0.4-0.1-0.7-0.2-1
		c-0.1-0.2-0.6-0.4-1.1-0.7c-1.1-0.4-1.8-0.9-2.1-1.3c-0.3-0.5-0.5-1-0.4-1.6c-0.1-0.9,0.3-1.7,0.9-2.4c0.6-0.6,1.4-0.9,2.2-0.9
		c0.9,0,1.7,0.2,2.1,0.7c0.5,0.4,0.8,1.1,0.8,1.8v0.4h-1.3c0-0.6-0.1-1-0.4-1.2c-0.2-0.3-0.7-0.4-1.2-0.4c-0.5,0-0.9,0.1-1.2,0.4
		c-0.3,0.3-0.5,0.8-0.4,1.2c0,0.7,0.6,1.2,1.6,1.7c0.2,0.1,0.4,0.2,0.6,0.2c0.5,0.2,1,0.6,1.3,1c0.3,0.5,0.4,1,0.4,1.6
		c0,1-0.3,1.9-1,2.6c-0.7,0.7-1.4,0.9-2.6,0.9c-1,0-1.7-0.2-2.2-0.8c-0.6-0.4-0.8-1.1-0.8-2v-0.2
		C378.7,377.8,378.7,377.7,378.7,377.6z"/>
	<path class="st0" d="M396.2,377.2c-0.2,1.1-0.6,2.1-1.2,2.8c-0.6,0.7-1.5,1-2.4,1c-0.8,0-1.7-0.3-2.2-0.9c-0.6-0.7-0.8-1.4-0.8-2.7
		c0-0.9,0.1-1.8,0.3-2.7c0.2-0.8,0.4-1.7,0.8-2.5c0.3-0.7,0.7-1.3,1.3-1.7c0.6-0.4,1.2-0.5,1.9-0.6c1,0,1.7,0.2,2.1,0.8
		c0.4,0.6,0.7,1.3,0.7,2.5c0,0.4,0,0.8-0.1,1.1c-0.1,0.4-0.1,0.8-0.2,1.2h-5.2c-0.1,0.4-0.1,0.7-0.1,1.1v0.8c0,0.6,0.1,1.2,0.4,1.7
		c0.3,0.4,0.8,0.6,1.2,0.6c0.5,0,1-0.2,1.3-0.6c0.4-0.5,0.6-1.2,0.8-1.8h1.2L396.2,377.2L396.2,377.2z M391.6,374.3h3.7
		c0-0.2,0.1-0.6,0.1-0.8V373c0-0.5-0.1-0.9-0.3-1.3c-0.3-0.3-0.7-0.5-1.1-0.4c-0.6,0-1.1,0.3-1.4,0.8
		C392,372.5,391.8,373.2,391.6,374.3L391.6,374.3z"/>
	<path class="st0" d="M404.8,379.4c-0.3,0.5-0.7,0.9-1.1,1.2c-0.4,0.2-0.9,0.4-1.3,0.3c-0.7,0-1.3-0.2-1.8-0.7
		c-0.4-0.4-0.7-1.1-0.7-2c0-0.8,0.2-1.6,0.7-2.2c0.4-0.6,1.2-0.9,2.2-1.1l1.7-0.4c0.4-0.1,0.8-0.3,1-0.7c0.3-0.4,0.4-0.9,0.3-1.4
		c0-0.3-0.2-0.6-0.4-0.8c-0.3-0.2-0.7-0.4-1.1-0.3c-0.6,0-1,0.1-1.2,0.4c-0.3,0.4-0.4,0.9-0.4,1.3h-1.3c0-0.8,0.3-1.6,0.9-2.2
		c0.6-0.6,1.2-0.8,2.2-0.8c0.8,0,1.5,0.2,2.1,0.6c0.5,0.4,0.7,1,0.7,1.7v0.6c0,0.2-0.1,0.4-0.1,0.8l-0.9,4.7c0,0.2-0.1,0.3-0.1,0.4
		v0.2c0,0.2,0.1,0.3,0.2,0.4c0.2,0.1,0.4,0.2,0.7,0.1l-0.2,1c-0.1,0.1-0.2,0.1-0.3,0.1h-0.4c-0.3,0-0.6-0.1-0.9-0.2
		c-0.2-0.2-0.3-0.5-0.3-0.8C404.8,379.7,404.8,379.6,404.8,379.4L404.8,379.4L404.8,379.4z M405.2,375.3c-0.2,0.1-0.3,0.1-0.6,0.2
		c-0.2,0.1-0.4,0.1-0.7,0.2l-0.8,0.2c-0.6,0.1-1.1,0.4-1.4,0.8c-0.3,0.3-0.4,0.9-0.4,1.6c-0.1,0.6,0.4,1.3,1,1.3c0.1,0,0.2,0,0.3,0
		c0.6,0,1.2-0.2,1.6-0.7c0.3-0.4,0.7-1.3,1-2.7L405.2,375.3L405.2,375.3z"/>
	<path class="st0" d="M410.3,380.6l2.9-13.9h1.4l-2.9,13.9H410.3z"/>
	<path class="st0" d="M423.6,380.6l2-9.2h-1.2l0.2-1.1h1.2l0.4-1.8c0.1-0.5,0.4-1,0.7-1.4c0.3-0.3,0.8-0.4,1.2-0.4h0.6
		c0.2,0,0.4,0.1,0.8,0.1l-0.2,1.2h-0.6c-0.2,0-0.5,0.1-0.7,0.2c-0.2,0.3-0.3,0.6-0.3,0.9l-0.2,1.2h1.4l-0.2,1.1h-1.4l-2,9.2H423.6
		L423.6,380.6z"/>
	<path class="st0" d="M431,377.5c0-0.9,0.1-1.8,0.3-2.7c0.2-0.8,0.4-1.7,0.8-2.5c0.3-0.7,0.8-1.3,1.3-1.8c0.5-0.4,1.2-0.6,1.9-0.6
		c0.9-0.1,1.8,0.3,2.5,0.9c0.6,0.7,0.9,1.6,0.9,2.6c0,0.9-0.1,1.9-0.3,2.8c-0.2,0.9-0.5,1.8-0.9,2.6c-0.3,0.7-0.8,1.3-1.3,1.7
		c-0.6,0.4-1.3,0.6-2,0.6c-1.1,0-1.9-0.3-2.4-0.9C431.2,379.4,431,378.4,431,377.5z M435.5,371.3c-0.4,0-0.8,0.1-1.1,0.4
		c-0.4,0.3-0.6,0.8-0.8,1.2c-0.4,0.7-0.6,1.5-0.7,2.4c-0.2,0.7-0.3,1.5-0.2,2.2c0,0.7,0.1,1.2,0.4,1.6c0.4,0.4,0.8,0.6,1.3,0.6
		c0.5,0,1-0.1,1.3-0.4c0.4-0.4,0.7-0.9,0.9-1.4c0.2-0.8,0.4-1.6,0.6-2.4c0.1-0.7,0.2-1.3,0.2-2c0-0.7-0.1-1.2-0.4-1.6
		C436.6,371.5,436.1,371.3,435.5,371.3L435.5,371.3z"/>
	<path class="st0" d="M441.8,380.6l2.2-10.3h1.3L445,372c0.3-0.5,0.7-1,1.2-1.3c0.5-0.3,1-0.5,1.6-0.4h0.4l-0.2,1.4
		c-0.1,0-0.2,0-0.3-0.1h-0.2c-0.7,0-1.4,0.3-1.9,0.8c-0.6,0.7-1,1.5-1.1,2.4l-1.2,5.9L441.8,380.6L441.8,380.6z"/>
	<path class="st0" d="M459.9,381c-0.4,0.9-0.9,1.8-1.6,2.6c-0.4,0.4-1.1,0.7-1.7,0.7h-0.4c-0.2,0-0.4-0.1-0.6-0.1l0.3-1.1
		c0.1,0,0.2,0,0.2,0.1h0.3c0.2,0,0.5-0.1,0.7-0.2c0.2-0.2,0.4-0.4,0.6-0.7l0.7-1.3l-0.8-10.5h1.4l0.4,8.4l3.6-8.4h1.7L459.9,381z"/>
	<path class="st0" d="M467.1,377.5c0-0.9,0.1-1.8,0.3-2.7c0.2-0.8,0.4-1.7,0.8-2.5c0.3-0.7,0.8-1.3,1.3-1.8c0.5-0.4,1.2-0.6,1.9-0.6
		c0.9-0.1,1.8,0.3,2.5,0.9c0.6,0.7,0.9,1.6,0.9,2.6c0,0.9-0.1,1.9-0.3,2.8c-0.2,0.9-0.5,1.8-0.9,2.6c-0.3,0.7-0.8,1.3-1.3,1.7
		c-0.6,0.4-1.3,0.6-2,0.6c-1.1,0-1.9-0.3-2.4-0.9C467.3,379.4,467,378.4,467.1,377.5z M471.6,371.3c-0.4,0-0.8,0.1-1.1,0.4
		c-0.4,0.3-0.6,0.8-0.8,1.2c-0.4,0.7-0.6,1.5-0.7,2.4c-0.2,0.7-0.3,1.5-0.2,2.2c0,0.7,0.1,1.2,0.4,1.6c0.4,0.4,0.8,0.6,1.3,0.6
		c0.5,0,1-0.1,1.3-0.4c0.4-0.4,0.7-0.9,0.9-1.4c0.2-0.8,0.4-1.6,0.6-2.4c0.1-0.7,0.2-1.3,0.2-2c0-0.7-0.1-1.2-0.4-1.6
		C472.7,371.5,472.1,371.3,471.6,371.3L471.6,371.3z"/>
	<path class="st0" d="M479.8,377.8c0,0.2-0.1,0.4-0.1,0.6v0.3c0,0.3,0.1,0.6,0.3,0.8c0.2,0.2,0.6,0.4,0.9,0.3c0.5,0,1-0.2,1.3-0.4
		c0.5-0.3,0.8-0.7,1.1-1.2l1.7-7.7h1.4l-2.2,10.3H483l0.2-1.1c-0.4,0.4-0.8,0.7-1.3,1c-0.5,0.2-0.9,0.3-1.4,0.3
		c-0.7,0-1.2-0.1-1.6-0.4c-0.4-0.4-0.6-0.8-0.6-1.3v-0.6c0-0.2,0-0.4,0.1-0.6l1.6-7.6h1.4L479.8,377.8z"/>
	<path class="st0" d="M488.9,380.6l2.2-10.3h1.3l-0.3,1.7c0.3-0.5,0.7-1,1.2-1.3c0.5-0.3,1-0.5,1.6-0.4h0.4l-0.2,1.4
		c-0.1,0-0.2,0-0.3-0.1h-0.2c-0.7,0-1.4,0.3-1.9,0.8c-0.6,0.7-1,1.5-1.1,2.4l-1.2,5.9L488.9,380.6L488.9,380.6z"/>
	<path class="st0" d="M507.2,371.3c0.3-0.4,0.6-0.7,1-1c0.4-0.2,0.9-0.3,1.3-0.3c0.7,0,1.4,0.3,1.9,0.9c0.5,0.8,0.7,1.7,0.7,2.7
		c0,2.1-0.4,3.8-1.2,5.2s-1.8,2-3.1,2c-0.5,0-1-0.1-1.3-0.4c-0.4-0.3-0.7-0.8-0.9-1.2l-1,4.9H503l3-13.7h1.3L507.2,371.3z
		 M509.1,371.2c-0.5,0-1,0.2-1.3,0.6c-0.4,0.5-0.7,1-0.9,1.6c-0.3,0.7-0.4,1.5-0.6,2.2c-0.1,0.6-0.2,1.3-0.2,1.9
		c0,0.6,0.1,1.1,0.4,1.6c0.3,0.4,0.7,0.6,1.2,0.6c0.4,0,0.8-0.1,1.1-0.4c0.3-0.4,0.6-0.9,0.9-1.3c0.3-0.7,0.5-1.5,0.6-2.2
		c0.1-0.7,0.2-1.5,0.2-2.2c0-0.6-0.1-1.1-0.4-1.6C509.9,371.4,509.5,371.2,509.1,371.2L509.1,371.2z"/>
	<path class="st0" d="M515.1,380.6l2.2-10.3h1.3l-0.3,1.7c0.3-0.5,0.7-1,1.2-1.3c0.5-0.3,1-0.5,1.6-0.4h0.5l-0.2,1.4
		c-0.1,0-0.2,0-0.3-0.1h-0.2c-0.7,0-1.4,0.3-1.9,0.8c-0.6,0.7-1,1.5-1.1,2.4l-1.2,5.9L515.1,380.6L515.1,380.6z"/>
	<path class="st0" d="M524.5,380.6h-1.4l2.2-10.3h1.4L524.5,380.6z M525.7,368.4l0.3-1.8h1.4l-0.3,1.8H525.7z"/>
	<path class="st0" d="M532.5,380.6h-1.6l-0.7-10.3h1.4l0.3,8.6l3.7-8.6h1.7L532.5,380.6z"/>
	<path class="st0" d="M544,379.4c-0.3,0.5-0.7,0.9-1.1,1.2c-0.4,0.2-0.9,0.4-1.3,0.3c-0.7,0-1.3-0.2-1.8-0.7c-0.4-0.4-0.7-1.1-0.7-2
		c0-0.8,0.2-1.6,0.7-2.2c0.4-0.6,1.2-0.9,2.2-1.1l1.7-0.4c0.4-0.1,0.8-0.3,1-0.7c0.3-0.4,0.4-0.9,0.3-1.4c0-0.3-0.2-0.6-0.4-0.8
		c-0.3-0.2-0.7-0.4-1.1-0.3c-0.6,0-1,0.1-1.2,0.4c-0.3,0.4-0.4,0.9-0.4,1.3h-1.3c0-0.8,0.3-1.6,0.9-2.2c0.6-0.6,1.2-0.8,2.2-0.8
		c0.8,0,1.5,0.2,2.1,0.6c0.5,0.4,0.7,1,0.7,1.7v0.6c0,0.2-0.1,0.4-0.1,0.8l-0.9,4.7c0,0.2-0.1,0.3-0.1,0.4v0.2
		c0,0.2,0.1,0.3,0.2,0.4c0.2,0.1,0.4,0.2,0.7,0.1l-0.2,1c-0.1,0.1-0.2,0.1-0.3,0.1h-0.4c-0.3,0-0.6-0.1-0.9-0.2
		c-0.2-0.2-0.3-0.5-0.3-0.8C544,379.7,544,379.6,544,379.4L544,379.4L544,379.4z M544.5,375.3c-0.2,0.1-0.3,0.1-0.6,0.2
		c-0.2,0.1-0.4,0.1-0.7,0.2l-0.8,0.2c-0.6,0.1-1.1,0.4-1.4,0.8c-0.3,0.3-0.4,0.9-0.4,1.6c-0.1,0.6,0.4,1.3,1,1.3c0.1,0,0.2,0,0.3,0
		c0.6,0,1.2-0.2,1.6-0.7c0.3-0.4,0.7-1.3,1-2.7L544.5,375.3L544.5,375.3z"/>
	<path class="st0" d="M556.9,377.1c-0.1,1.2-0.4,2.1-1.1,2.8c-0.6,0.7-1.5,1-2.5,1c-0.9,0-1.7-0.3-2.4-0.9c-0.6-0.6-0.8-1.4-0.8-2.6
		c0-0.9,0.1-1.8,0.3-2.7c0.2-0.8,0.4-1.7,0.8-2.5c0.4-1.4,1.8-2.4,3.3-2.4c1,0,1.7,0.2,2.2,0.8c0.5,0.7,0.8,1.6,0.8,2.5v0.4h-1.4
		v-0.6c0-0.6-0.1-1.1-0.4-1.3c-0.2-0.3-0.7-0.4-1.2-0.4c-0.4,0-0.8,0.1-1.1,0.4c-0.4,0.3-0.6,0.8-0.8,1.2c-0.2,0.7-0.4,1.5-0.7,2.4
		c-0.1,0.7-0.2,1.5-0.2,2.2c-0.1,0.6,0.1,1.2,0.4,1.7c0.4,0.4,0.8,0.6,1.3,0.6c0.6,0,1.1-0.2,1.4-0.7c0.4-0.6,0.6-1.2,0.7-1.9h1.3
		L556.9,377.1L556.9,377.1z"/>
	<path class="st0" d="M563.6,381c-0.4,0.9-0.9,1.8-1.6,2.6c-0.4,0.4-1.1,0.7-1.7,0.7h-0.4c-0.2,0-0.4-0.1-0.6-0.1l0.3-1.1
		c0.1,0,0.2,0,0.2,0.1h0.3c0.2,0,0.5-0.1,0.7-0.2c0.2-0.2,0.4-0.4,0.6-0.7l0.7-1.3l-0.8-10.5h1.4l0.4,8.4l3.6-8.4h1.7L563.6,381z"/>
	<path class="st0" d="M234.1,335.7v0.2c0,6,1.5,10.9,4.4,14.4c2.9,3.6,6.8,5.4,11.8,5.4c3.9,0,7.1-1,9.7-3.1
		c2.6-2.1,4.1-4.9,4.7-8.6h5.7c-0.7,5-2.8,9.1-6.5,12.1c-3.7,3-8.4,4.5-14,4.5c-6.7,0-12-2.2-15.8-6.8s-5.7-10.9-5.7-18.9
		c0-8.3,1.9-14.7,5.7-19.3c3.7-4.6,9.1-6.8,15.9-6.8c6.6,0,11.8,2.2,15.5,6.6c3.7,4.4,5.6,10.6,5.6,18.5v1.9L234.1,335.7
		L234.1,335.7z M234.2,331.1h30.9c-0.2-5.5-1.7-9.7-4.5-12.9c-2.7-3.1-6.3-4.7-10.9-4.7c-4.5,0-8.2,1.6-11.1,4.7
		C236,321.6,234.4,325.8,234.2,331.1z"/>
	<path class="st1" d="M289.6,359.3v-68.4h25.2c3.1,0,6.2,0.1,9.3,0.6c2,0.4,3.9,1.1,5.7,2c2.8,1.5,5,3.9,6.4,6.7
		c1.4,2.9,2.2,6.5,2.2,10.4c0.1,3.5-0.7,6.9-2.2,10.1c-1.5,2.9-3.7,5.3-6.5,6.9c-1.8,1-3.8,1.8-5.8,2.1c-2.2,0.4-5.8,0.7-11,0.7
		h-14.1v28.9L289.6,359.3L289.6,359.3z M298.9,322.1h15.6c5.4,0,9.2-0.9,11.3-2.6s3.3-4.7,3.3-9c0-4-1.1-6.9-3.3-8.7
		c-2.1-1.8-5.7-2.7-10.7-2.7h-16.3v23L298.9,322.1L298.9,322.1z"/>
	<path class="st1" d="M352.5,359.3v-49.7h8.1v9c1.3-3.4,3.1-5.8,5.4-7.5c2.2-1.7,5-2.5,8.4-2.5h1.3c0.3,0,0.5,0,0.8,0.1v8.8
		c-0.3,0-0.5,0-0.8-0.1h-1.2c-4.5,0-7.8,1.2-10.2,3.7c-2.4,2.5-3.5,5.9-3.5,10.6v27.7h-8.3V359.3z"/>
	<path class="st1" d="M391.7,300.4v-9.5h8.4v9.5L391.7,300.4L391.7,300.4z M391.7,359.3v-49.7h8.4v49.8h-8.4V359.3L391.7,359.3z"/>
	<path class="st1" d="M431.1,359.3l-18.4-49.8h9l13.9,39.9l13.6-39.9h9L440,359.3L431.1,359.3L431.1,359.3z"/>
	<path class="st1" d="M500.7,352.7c-2.6,2.7-5.4,4.8-8.3,6.2c-2.9,1.3-5.4,2-8.7,2c-5,0-9.6-1.3-12.5-3.9c-2.8-2.7-4.3-6.3-4.3-11
		c0-4.5,1.4-8.1,4.3-10.6s7.1-4.3,12.8-4.9c1.4-0.1,3.5-0.3,5.9-0.7c4.3-0.4,6.8-0.9,7.8-1.2c0.8-0.2,1.5-0.7,1.9-1.4
		c0.3-0.6,0.4-1.9,0.4-3.9c0-2.6-0.9-4.5-2.8-5.7c-1.9-1.2-4.7-1.9-8.4-1.9c-3.9,0-6.8,0.8-8.7,2.4c-2,1.6-2.9,3.8-2.9,6.8h-8v-0.3
		c0-5,1.8-9,5.3-11.9c3.6-2.9,8.4-4.4,14.6-4.4c6.6,0,11.5,1.2,14.7,3.7c3.1,2.5,4.7,6.4,4.7,11.6v24.9c0,2.1,0.2,3.5,0.7,4.1
		c0.4,0.7,1.3,0.9,2.5,0.9c0.3,0,0.6,0,0.9-0.1c0.4,0,0.8-0.1,1.2-0.2v6.5c-1,0.2-1.2,0.4-2,0.6c-0.7,0.1-1.4,0.1-2.1,0.1
		c-2.8,0-5.5-0.6-6.9-1.8c-1.3-1.2-2.1-3-2.1-5.5v-0.2L500.7,352.7L500.7,352.7z M499.9,334c-2.2,1.2-6,2.1-11.5,2.8
		c-1.9,0.2-3.4,0.4-4.4,0.6c-3,0.4-5.3,1.3-6.6,2.7c-1.3,1.3-2,3.1-2,5.7c0,2.5,0.8,4.4,2.4,5.7c1.6,1.3,3.8,2,6.6,2
		c4.5,0,8.2-1.1,11.1-3.4c2.9-2.2,4.4-5.2,4.4-8.7V334H499.9z"/>
	<path class="st1" d="M559.8,326c-0.2-3.4-1.4-6-3.7-7.8c-2.2-1.8-5.3-2.8-9.2-2.8c-4.5,0-8.1,1.7-10.5,4.9c-2.5,3.2-3.7,8-3.7,14
		s1.2,10.8,3.6,14c2.4,3.2,5.7,4.9,10.1,4.9c3.9,0,7.1-1,9.4-3c2.4-2,3.8-4.9,4.4-8.7h8c-0.4,6.2-2.6,10.9-6.5,14.3
		c-3.9,3.5-8.4,5.2-15,5.2c-6.8,0-12.8-2.4-16.7-7.1c-3.9-4.7-5.8-11.1-5.8-19.3c0-8.3,2-14.9,6-19.6c4-4.7,9.6-7.1,16.7-7.1
		c6.3,0,11.3,1.7,15,4.9c3.8,3.3,5.8,7.7,6,13.2h-8.1L559.8,326L559.8,326z"/>
	<path class="st1" d="M614.4,309.6h7.6L602.7,367c-1.3,5.4-3.4,9-5.4,10.6c-2,1.7-4.9,2.5-8.7,2.5c-0.8,0-1.6-0.1-2.5-0.2
		c-0.8-0.1-1.7-0.3-2.5-0.6v-8c0.8,0.2,1.6,0.4,2.5,0.6c0.8,0.1,1.6,0.2,2.5,0.2c1.4,0.1,2.7-0.3,3.9-1c1.1-0.7,1.9-1.9,2.2-3.1
		l2.2-5.9l-19.5-52.6h9.3l13.8,40.2L614.4,309.6z"/>
</g>
<g id="Ebene_2-2">
	
		<linearGradient id="SVGID_1_" gradientUnits="userSpaceOnUse" x1="216.4296" y1="-33.0695" x2="300.0559" y2="111.7729" gradientTransform="matrix(0.9997 0 0 0.9997 -152.6101 281.6588)">
		<stop  offset="0" style="stop-color:#909096"/>
		<stop  offset="0.5" style="stop-color:#6D6C70"/>
		<stop  offset="1" style="stop-color:#514E50"/>
	</linearGradient>
	<circle class="st2" cx="105.6" cy="321" r="83.6"/>
	
		<linearGradient id="SVGID_2_" gradientUnits="userSpaceOnUse" x1="231.8487" y1="-6.3552" x2="284.6273" y2="85.0599" gradientTransform="matrix(0.9997 0 0 0.9997 -152.6101 281.6588)">
		<stop  offset="0" style="stop-color:#0181A4"/>
		<stop  offset="0.15" style="stop-color:#0595BD"/>
		<stop  offset="0.37" style="stop-color:#17ACDB"/>
		<stop  offset="0.5" style="stop-color:#21B6E7"/>
		<stop  offset="0.63" style="stop-color:#1AAFDF"/>
		<stop  offset="0.79" style="stop-color:#009CC8"/>
		<stop  offset="0.98" style="stop-color:#0484A8"/>
		<stop  offset="1" style="stop-color:#0181A4"/>
	</linearGradient>
	<path class="st3" d="M158.3,321c0,29.1-23.6,52.8-52.8,52.8c-29.1,0-52.8-23.6-52.8-52.8c0-29.1,23.6-52.8,52.8-52.8c0,0,0,0,0,0
		C134.7,268.3,158.3,291.9,158.3,321z"/>
	<path id="P_Pfad" class="st4" d="M113.5,295.8c4.7,0,8.1,1,10.3,2.9c2.2,1.9,3.3,5,3.3,9.2c0,4.2-1.1,7.3-3.3,9.2
		c-2.2,1.9-5.9,2.8-11,2.8H96.4v-24L113.5,295.8L113.5,295.8L113.5,295.8z M83.7,358.1h12.7v-27h17.3c4.6,0,8.1-0.3,10.7-0.9
		c2.4-0.6,4.7-1.6,6.8-3.1c2.8-2.1,5-4.8,6.5-7.9c1.5-3.2,2.2-6.8,2.2-10.8c0-4.9-0.9-9.1-2.7-12.6c-1.7-3.4-4.5-6.3-7.9-8
		c-1.9-1-3.9-1.8-6.1-2.2c-2.3-0.4-5.7-0.6-10.4-0.6h-29V358.1z"/>
	<path class="st4" d="M47.4,306.2l-12.1-3.4l-0.9,3.1l-2.4-0.7l2.5-8.9l2.4,0.7l-0.9,3.1l12.2,3.4L47.4,306.2z"/>
	<path class="st4" d="M49.9,298.1l-13.5-6.8l2.3-4.5c0.7-1.4,1.4-2.2,2.3-2.5c0.8-0.3,1.9-0.2,3.2,0.5c0.7,0.3,1.4,0.8,1.8,1.5
		c0.4,0.6,0.4,1.3,0.2,1.9c0.9-1,2.2-1.1,4-0.4c0.1,0,0.1,0,0.2,0.1l1.8,0.8c0.4,0.2,0.9,0.4,1.3,0.4c0.3,0.1,0.7,0,1-0.1l-1.5,3
		c-0.3-0.1-0.6-0.1-0.9-0.2c-0.5-0.2-0.9-0.4-1.3-0.6l-1.4-0.7l-0.4-0.2c-0.8-0.4-1.4-0.5-1.9-0.3s-0.9,0.8-1.4,1.8l-0.4,0.9l5.9,3
		L49.9,298.1z M43.4,291.8l0.7-1.4c0.4-0.7,0.5-1.3,0.3-1.7c-0.2-0.4-0.6-0.8-1.4-1.2c-0.7-0.3-1.2-0.4-1.6-0.2
		c-0.4,0.2-0.8,0.7-1.2,1.5l-0.6,1.2L43.4,291.8z"/>
	<path class="st4" d="M44.1,277.7l1.8-2.2l7.9,6.4c0.9,0.7,1.6,1.1,2.1,1.2c0.5,0.1,1-0.2,1.4-0.8c0.5-0.6,0.6-1.1,0.5-1.6
		s-0.7-1.1-1.6-1.8l-7.9-6.3l1.7-2.2l8.1,6.5c0.6,0.4,1.1,1,1.6,1.5c0.3,0.4,0.5,0.8,0.6,1.2c0.2,0.7,0.1,1.4-0.1,2
		c-0.3,0.8-0.7,1.5-1.2,2.1c-1.1,1.4-2.1,2.1-3.2,2.1c-1,0.1-2.3-0.5-3.7-1.6L44.1,277.7z"/>
	<path class="st4" d="M60.7,273.5l2.2-1.8l0.6,0.8c0.6,0.7,1.1,1.1,1.5,1.2c0.4,0.1,0.9,0,1.2-0.4c0.4-0.3,0.7-0.7,0.8-1.2
		c0-0.5-0.1-1-0.5-1.3c-0.3-0.3-0.6-0.6-1-0.7c-0.6-0.1-1.2-0.1-1.9-0.1l-1.8,0.1c-1.5,0.1-2.6,0.1-3.2-0.1
		c-0.7-0.3-1.3-0.7-1.7-1.3c-0.8-0.8-1.1-1.9-1-3c0.2-1.1,0.8-2.1,1.7-2.8c1.1-0.9,2.2-1.3,3.2-1.2s2.1,0.7,2.9,1.8
		c0.1,0.1,0.2,0.2,0.2,0.3c0,0,0.1,0.1,0.1,0.2l-2.1,1.7l-0.2-0.3c-0.4-0.5-0.9-0.9-1.4-1.1c-0.5-0.1-1,0.1-1.4,0.4
		c-0.3,0.2-0.5,0.6-0.6,1c0,0.4,0.1,0.8,0.4,1.1c0.4,0.5,1.3,0.7,2.7,0.5h0l1.9-0.2c1-0.2,2.1-0.1,3.1,0.2c0.8,0.3,1.5,0.8,2,1.5
		c0.9,1.1,1.2,2.1,1.1,3.2s-0.8,2.1-1.9,3c-1.1,0.9-2.3,1.4-3.3,1.2c-1.1-0.1-2.1-0.8-3.1-2.1C61.1,274.1,60.9,273.8,60.7,273.5
		L60.7,273.5z"/>
	<path class="st4" d="M75.6,269.1l-6-11l-2.8,1.5l-1.2-2.2l8.1-4.5l1.2,2.2l-2.8,1.5l6,11L75.6,269.1z"/>
	<path class="st4" d="M83.2,265.2l-4.8-14.3l7.3-2.4l0.8,2.4l-4.7,1.6l1.1,3.3l4.4-1.4l0.8,2.3l-4.4,1.4l1.3,3.9l4.8-1.6l0.8,2.4
		L83.2,265.2z"/>
	<path class="st4" d="M93.6,262.1l-1.8-15l4.5-0.5c0.7-0.1,1.5-0.1,2.2,0c0.5,0.1,1,0.3,1.4,0.6c0.6,0.5,1.1,1.1,1.4,1.8
		c0.3,0.8,0.6,1.9,0.8,3.6c0.2,1.5,0.3,3,0.3,4.5c0,0.8-0.2,1.6-0.5,2.3c-0.2,0.6-0.7,1.1-1.3,1.4c-0.6,0.3-1.6,0.6-3.1,0.8
		L93.6,262.1z M96.1,259.5l1.2-0.2c0.4,0,0.9-0.1,1.3-0.3c0.2-0.1,0.4-0.3,0.5-0.5c0.2-0.5,0.4-1.1,0.4-1.7c0-1.1-0.1-2.2-0.2-3.3
		c-0.1-1.1-0.3-2.1-0.6-3.1c-0.1-0.5-0.4-1-0.8-1.4c-0.2-0.2-0.4-0.3-0.7-0.3c-0.4,0-0.8,0-1.2,0.1l-1.2,0.1L96.1,259.5z"/>
	<path class="st4" d="M112.6,261.3l2.8-14.8l4.8,0.9c1.4,0.3,2.5,0.8,3,1.6c0.5,0.8,0.6,1.9,0.4,3.4c-0.3,1.5-0.8,2.5-1.6,3.1
		c-0.8,0.6-1.9,0.8-3.3,0.5l-2-0.4l-1.2,6.3L112.6,261.3z M116.8,253.5l1.2,0.2c0.9,0.2,1.5,0.1,1.9-0.2c0.4-0.3,0.7-0.8,0.8-1.6
		s0.1-1.4-0.2-1.8c-0.3-0.4-0.8-0.6-1.7-0.8l-1.2-0.2L116.8,253.5z"/>
	<path class="st4" d="M124.1,263.8l5.7-14l4.6,1.9c1.4,0.6,2.3,1.3,2.7,2.1s0.3,1.9-0.2,3.2c-0.3,0.8-0.7,1.4-1.4,1.9
		c-0.5,0.4-1.2,0.5-1.8,0.3c1.1,0.8,1.3,2.1,0.6,3.9c0,0.1,0,0.1-0.1,0.2l-0.7,1.9c-0.2,0.4-0.3,0.9-0.3,1.4c0,0.3,0,0.7,0.2,1
		l-3.1-1.3c0-0.3,0.1-0.6,0.2-0.9c0.1-0.5,0.3-0.9,0.5-1.4l0.6-1.5l0.2-0.4c0.3-0.8,0.4-1.4,0.2-1.9c-0.2-0.4-0.9-0.9-1.9-1.3
		l-0.9-0.4l-2.5,6.1L124.1,263.8z M130,256.8l1.5,0.6c0.8,0.3,1.4,0.4,1.8,0.2c0.4-0.2,0.8-0.7,1.1-1.4c0.3-0.8,0.3-1.2,0.1-1.6
		s-0.7-0.8-1.6-1.1l-1.3-0.5L130,256.8z"/>
	<path class="st4" d="M135.6,269.1l7.9-12.9l2.4,1.4l-7.9,12.9L135.6,269.1z"/>
	<path class="st4" d="M142.9,274.1l7.2-13.7l2.3,1.9l-6.1,10.6l9.3-7.9l2.3,1.9l-12.2,9.5L142.9,274.1z"/>
	<path class="st4" d="M149.3,279.6l13.9-6.7l2.3,2.9l-9.7,12l-1.9-2.4l2.5-2.9l-2-2.5l-3.4,1.8L149.3,279.6z M156.5,279l1.5,1.9
		l4.2-4.9L156.5,279z"/>
	<path class="st4" d="M164.6,292.9l1.2,2.4c-0.1,0-0.1,0.1-0.2,0.1c-0.1,0.1-0.2,0.1-0.3,0.1c-1.6,0.8-2.9,1.1-4,0.8
		c-1.1-0.3-2-1.1-2.7-2.4c-0.3-0.6-0.5-1.2-0.6-1.8c-0.1-0.5,0-1.1,0.2-1.6c0.3-0.8,0.8-1.4,1.4-1.9c1.3-0.9,2.7-1.8,4.1-2.5
		c1.1-0.6,2.2-1.1,3.4-1.5c0.7-0.3,1.4-0.4,2.1-0.4c0.7,0,1.4,0.2,2,0.6c0.6,0.5,1.1,1.1,1.4,1.8c0.7,1.4,0.8,2.5,0.5,3.5
		c-0.4,1-1.4,1.9-2.9,2.7l-1.2-2.4l0.3-0.2c0.6-0.3,1.1-0.7,1.4-1.2c0.4-0.7,0.1-1.7-0.7-2c-0.2-0.1-0.4-0.2-0.7-0.2
		c-0.6,0-2,0.6-4.3,1.8c-2.4,1.2-3.8,2.1-4.2,2.6c-0.5,0.7-0.4,1.7,0.3,2.2c0.2,0.2,0.5,0.3,0.8,0.3c0.5,0,1.3-0.3,2.4-0.8
		L164.6,292.9z"/>
	<path class="st4" d="M162.9,303.6l6.2-1.7l7.3-6.2l0.8,3l-4.9,3.7l6.1,0.6l0.8,2.9l-9.4-1.4l-6.2,1.7L162.9,303.6z"/>
</g>
</svg>
