<?xml version="1.0" encoding="UTF-8" standalone="no"?>
<!-- Created with Inkscape (http://www.inkscape.org/) -->

<svg
   width="266.67719mm"
   height="160.86824mm"
   viewBox="0 0 266.67719 160.86824"
   version="1.1"
   id="svg1"
   xml:space="preserve"
   inkscape:export-filename="image.png"
   inkscape:export-xdpi="81.763809"
   inkscape:export-ydpi="81.763809"
   xmlns:inkscape="http://www.inkscape.org/namespaces/inkscape"
   xmlns:sodipodi="http://sodipodi.sourceforge.net/DTD/sodipodi-0.dtd"
   xmlns="http://www.w3.org/2000/svg"
   xmlns:svg="http://www.w3.org/2000/svg"><sodipodi:namedview
     id="namedview1"
     pagecolor="#ffffff"
     bordercolor="#000000"
     borderopacity="0.25"
     inkscape:showpageshadow="2"
     inkscape:pageopacity="0.0"
     inkscape:pagecheckerboard="0"
     inkscape:deskcolor="#d1d1d1"
     inkscape:document-units="mm"
     inkscape:export-bgcolor="#ffffff00"><inkscape:page
       x="0"
       y="6.0708594e-13"
       width="266.67719"
       height="160.86826"
       id="page2"
       margin="0"
       bleed="0" /></sodipodi:namedview><defs
     id="defs1" /><g
     id="g22"
     style="fill:#0000e4;fill-opacity:1"
     transform="translate(262.74117,416.05859)"><path
       style="fill:#0000e4;fill-opacity:1"
       d="m -99.075262,-255.52096 c 0.07377,-0.1819 5.085614,-9.08182 11.137421,-19.77761 l 11.003285,-19.44687 -14.80328,-0.13229 -14.803274,-0.13229 17.518639,-30.88517 17.518646,-30.88517 14.98146,-0.005 14.981461,-0.005 14.0027,-24.93698 c 7.701485,-13.71534 14.108872,-24.93698 14.238639,-24.93698 0.338166,0 3.266082,5.67274 5.3259023,10.31875 20.3089397,45.80771 14.3683845,98.05274 -15.7116913,138.17865 l -2.231358,2.97656 h -36.646343 c -29.212226,0 -36.619133,-0.0671 -36.512207,-0.33073 z"
       id="path11" /><path
       style="fill:#0000e4;fill-opacity:1"
       d="m -234.61945,-258.12927 c -29.86812,-38.88308 -36.45268,-90.43341 -17.30962,-135.51655 1.413,-3.32771 5.83352,-12.28768 6.5368,-13.24948 l 0.33215,-0.45424 24.0719,41.81479 c 13.23954,22.99812 24.1375,41.81538 24.21767,41.81611 0.0802,7.3e-4 12.05882,-20.74531 26.6192,-46.10232 l 26.47341,-46.10364 39.35282,-0.067 39.35282,-0.067 -0.884513,1.56243 c -0.486482,0.85933 -21.303731,37.04892 -46.260547,80.4213 l -45.37605,78.85886 -37.43854,0.007 -37.43854,0.007 z"
       id="path10" /></g></svg>
