<?xml version="1.0" encoding="UTF-8" standalone="no"?>
<svg
   width="284.97095mm"
   height="77.739731mm"
   viewBox="0 0 284.97095 77.739731"
   version="1.1"
   xmlns="http://www.w3.org/2000/svg">
  <g transform="translate(-302.38455,88.185807)">
    <path
       style="fill:#ffffff;fill-opacity:1"
       d="m 308.15167,-10.764778 c -0.83799,-0.21238 -1.90956,-0.58368 -2.38125,-0.82511 -1.10532,-0.56575 -3.10657,-1.99256 -3.10657,-2.21486 0,-0.29283 1.68791,-2.38449 1.92422,-2.38449 0.12291,0 0.67271,0.361013 1.22177,0.802252 1.51803,1.219918 3.4323,1.843738 5.65424,1.842588 2.24495,-0.001 3.35019,-0.52429 3.89707,-1.844575 0.79942,-1.929967 -0.41598,-2.996675 -4.6609,-4.090703 -3.83683,-0.988851 -5.50159,-1.793821 -6.46755,-3.127298 -0.66457,-0.917416 -0.7751,-1.311072 -0.7751,-2.760628 0,-1.165882 0.16349,-2.011099 0.52672,-2.723099 1.36792,-2.681331 5.32692,-3.962479 9.50673,-3.076414 1.9408,0.411423 4.79332,1.845622 4.77328,2.399925 -0.005,0.151155 -0.39495,0.724349 -0.86553,1.273766 l -0.8556,0.99894 -1.89204,-0.970746 c -1.62354,-0.83298 -2.15254,-0.973132 -3.72755,-0.987554 -1.86291,-0.01706 -2.89752,0.37457 -3.68728,1.395748 -0.54986,0.710966 -0.40368,2.096068 0.29493,2.794683 0.62251,0.622505 1.24486,0.84271 5.67242,2.007065 2.52833,0.664899 4.40664,1.806378 5.19261,3.155633 0.67307,1.155449 0.71658,3.960619 0.08,5.159377 -0.6486,1.22144 -2.06412,2.44598 -3.37804,2.92228 -1.66415,0.60326 -5.07483,0.72759 -6.94661,0.25322 z m 50.90328,0.12802 c -2.8541,-0.60231 -4.83078,-2.27731 -5.90328,-5.00232 -0.53374,-1.356113 -0.58981,-2.041202 -0.68929,-8.421515 l -0.10829,-6.945312 h 1.7091 1.70911 l 0.12649,6.548437 c 0.14101,7.299744 0.3371,8.23061 2.03473,9.65907 2.28499,1.92269 6.5822,1.47637 8.11712,-0.84306 0.95264,-1.439525 1.17154,-3.229522 1.17154,-9.579727 v -5.78472 h 1.5875 c 1.46393,0 1.58907,0.04634 1.60767,0.595312 0.0111,0.327422 0.01,3.48092 -0.002,7.007774 -0.0206,5.867077 -0.0705,6.540837 -0.58724,7.92186 -0.72799,1.945731 -2.54251,3.798251 -4.33469,4.425481 -1.56382,0.5473 -4.82407,0.75934 -6.43813,0.41872 z m 71.27036,-0.11778 c -0.72761,-0.21135 -1.39865,-0.38952 -1.49121,-0.39594 -0.59838,-0.0415 -3.53379,-2.36712 -4.29264,-3.40087 -2.13718,-2.911422 -2.63674,-7.427415 -1.1763,-10.633724 2.47509,-5.433933 9.35793,-7.843432 14.96551,-5.239028 1.90711,0.885743 4.34886,3.458312 5.09818,5.37132 0.88185,2.251357 0.88337,5.943226 0.003,8.202083 -0.85228,2.187689 -3.5402,4.854799 -5.73067,5.686309 -1.99396,0.75692 -5.50898,0.95222 -7.37624,0.40985 z m 5.47827,-3.2001 c 4.94717,-1.685674 6.38907,-8.516415 2.59798,-12.307499 -1.57207,-1.572076 -3.37637,-2.218453 -5.67709,-2.033773 -1.80704,0.145051 -2.85171,0.5946 -4.26467,1.835197 -3.23253,2.838197 -3.12457,8.336892 0.21988,11.199621 1.8774,1.606984 4.71476,2.127324 7.1239,1.306454 z m -101.19129,3.13336 -0.99219,-0.10824 v -8.582984 -8.582987 h -3.43958 -3.43959 v -1.455208 -1.455208 h 8.46667 8.46667 v 1.447303 1.447303 l -3.37344,0.07405 -3.37344,0.07405 -0.13229,8.598958 c -0.14879,9.6712811 0.0765,8.789441 -2.18281,8.542961 z m 46.54461,0.0119 c -0.097,-0.097 -0.17638,-4.68939 -0.17638,-10.20528 v -10.028893 l 5.62239,0.08497 5.6224,0.08497 1.71979,0.818766 c 2.18572,1.040591 3.82918,2.68405 4.86977,4.869776 0.73787,1.549861 0.81858,1.968153 0.81683,4.233333 -0.002,2.258643 -0.0848,2.687947 -0.81877,4.233334 -1.51366,3.186947 -4.46861,5.287997 -8.17512,5.812737 -2.0851,0.29519 -9.20965,0.36755 -9.48091,0.0963 z m 10.9945,-3.77228 c 1.40861,-0.676925 2.98482,-2.285855 3.5392,-3.612677 0.20581,-0.492579 0.36858,-1.746674 0.36535,-2.815051 -0.007,-2.291973 -0.53911,-3.651596 -1.97534,-5.046445 -1.55938,-1.514456 -2.92263,-1.907366 -6.6178,-1.907366 h -3.175 l -0.0708,6.742321 c -0.0389,3.708276 -0.007,6.907508 0.07,7.109418 0.11304,0.29459 0.78025,0.34368 3.37811,0.24856 2.66057,-0.0974 3.45974,-0.22546 4.48625,-0.71876 z m 17.40412,-6.370081 v -10.054166 h 1.58749 1.5875 v 10.054166 10.054171 h -1.5875 -1.58749 z m -107.09217,-39.489063 0.0682,-15.941146 h 4.36562 4.36563 l 0.0682,15.941146 0.0682,15.941146 h -4.50205 -4.50205 z m 27.93521,11.244792 c -1.92031,-2.582995 -5.54194,-7.451985 -8.04806,-10.819978 -2.50612,-3.367994 -4.75024,-6.419179 -4.98693,-6.780412 l -0.43035,-0.656787 5.63146,-0.125374 c 4.99602,-0.111227 5.8024,-0.191419 7.14642,-0.710686 2.91479,-1.126141 4.36662,-3.918235 3.69712,-7.110116 -0.42073,-2.005842 -1.2946,-3.221343 -2.99164,-4.161203 l -1.42669,-0.790132 -13.22917,-0.132292 -13.22916,-0.132292 -0.0735,-3.784821 -0.0735,-3.784821 14.49329,0.09116 c 13.16461,0.0828 14.6267,0.135368 15.9485,0.573424 5.35524,1.774771 8.35556,4.911096 9.38982,9.815479 1.58852,7.53265 -2.04828,14.266575 -8.79451,16.283957 -0.61846,0.184944 -1.12448,0.442539 -1.12448,0.572432 0,0.129893 2.66055,3.724117 5.91233,7.987164 3.25178,4.263046 5.99724,7.888393 6.10103,8.056325 0.1402,0.226841 -1.17492,0.305331 -5.11591,0.305331 h -5.30461 z m 19.4829,4.365625 c -0.0694,-0.181901 -0.0954,-9.974792 -0.0578,-21.76198 l 0.0684,-21.43125 4.43177,-0.07254 4.43178,-0.07254 v 21.834522 21.834523 h -4.37393 c -3.25545,0 -4.4062,-0.08457 -4.50013,-0.330729 z m 17.34072,-21.497396 v -21.828126 h 4.17643 4.17643 l 5.01784,5.992814 c 4.79091,5.721784 13.61999,16.208314 17.67018,20.987335 l 1.89975,2.241606 0.0684,-14.610878 0.0684,-14.610877 h 4.23109 4.2311 v 21.828126 21.828125 l -3.77032,-7.24e-4 -3.77031,-7.24e-4 -2.49972,-2.975838 c -9.9545,-11.850529 -22.37142,-26.589587 -22.67146,-26.911336 -0.30566,-0.327788 -0.3343,1.947746 -0.18564,14.750521 l 0.17578,15.138101 h -4.40896 -4.40896 z m 48.41875,18.74671 v -3.081416 l 1.12448,-1.224107 c 0.61846,-0.673258 4.3987,-4.788314 8.40052,-9.144567 6.98268,-7.601116 14.91465,-16.15261 21.91726,-23.629112 l 3.29298,-3.515826 2.1454,0.07624 2.1454,0.07624 0.0742,3.22469 0.0742,3.224689 -2.71999,3.009699 c -1.496,1.655334 -4.81275,5.26438 -7.37057,8.020102 -2.55781,2.755722 -6.29873,6.796341 -8.31315,8.979154 -2.01442,2.182812 -6.39102,6.915547 -9.72579,10.517188 l -6.06321,6.548437 h -2.49083 -2.49082 z m 10.36285,2.845508 c 0.0485,-0.129748 1.60289,-1.796623 3.45418,-3.704166 l 3.36599,-3.46826 h 11.11995 11.11995 v 3.704166 3.704167 h -14.57413 c -8.42457,0 -14.53692,-0.09954 -14.48594,-0.235907 z m 35.93923,-21.592218 v -21.828126 h 4.23148 4.23147 l 0.068,17.79323 0.068,17.793229 12.83229,0.132292 12.8323,0.132292 0.0732,3.902604 0.0732,3.902604 H 479.148 461.94301 Z m 40.21667,0 v -21.828126 h 18.13122 18.13123 l -0.0734,3.770313 -0.0734,3.770312 -13.82448,0.06851 -13.82448,0.06851 v 4.889841 4.889841 l 12.50156,0.06874 12.50156,0.06874 v 3.704167 3.704167 l -12.50692,0.06874 -12.50692,0.06874 0.0715,5.48751 0.0715,5.48751 14.22135,0.06844 14.22136,0.06845 v 3.701868 3.701868 h -18.52085 -18.52083 z m 43.65625,-0.01495 v -21.843075 l 13.95677,0.09897 c 12.3763,0.08777 14.13654,0.151879 15.54427,0.566163 6.7304,1.980706 10.19124,6.320234 10.25488,12.858512 0.0284,2.913586 -0.36306,4.809431 -1.43556,6.953139 -1.61261,3.223299 -3.89011,4.999265 -8.50367,6.63106 -0.39836,0.140897 0.53944,1.513592 5.62239,8.229682 3.35528,4.433318 6.1005,8.125388 6.1005,8.204599 0,0.07921 -2.35148,0.143966 -5.22552,0.1439 l -5.22552,-1.2e-4 -5.66156,-7.672797 -5.66157,-7.672796 h -5.51708 -5.51708 v 7.672916 7.672917 h -4.36562 -4.36563 z m 21.69583,-1.257885 c 4.74585,-0.09713 5.77535,-0.341282 7.24326,-1.717763 1.21416,-1.138534 1.74018,-2.571639 1.74677,-4.759005 0.006,-2.143773 -0.46504,-3.380472 -1.7559,-4.605633 -1.68183,-1.596225 -2.06343,-1.654139 -11.53361,-1.750371 l -8.6651,-0.08805 v 6.491588 6.491587 l 2.4474,0.07608 c 1.34606,0.04184 3.28083,0.04791 4.29948,0.0135 1.01864,-0.03442 3.81661,-0.102784 6.2177,-0.151926 z M 416.61107,-80.659379 c -0.097,-0.09701 -0.17639,-1.82342 -0.17639,-3.836458 v -3.66007 h 14.15521 c 7.78536,0 14.15521,0.06832 14.15521,0.151825 0,0.171666 -5.9524,6.680098 -6.57607,7.190363 -0.30828,0.252223 -2.89395,0.330729 -10.8929,0.330729 -5.76877,0 -10.56805,-0.07937 -10.66506,-0.176389 z" />
  </g>
</svg>
