<?xml version="1.0" encoding="UTF-8" standalone="no"?>
<svg
   id="Layer_1"
   data-name="Layer 1"
   viewBox="0 0 329923.19 329913.62"
   version="1.1"
   sodipodi:docname="671900f4707d9-WhatsApp.svg"
   width="329923.19"
   height="329913.62"
   xmlns:inkscape="http://www.inkscape.org/namespaces/inkscape"
   xmlns:sodipodi="http://sodipodi.sourceforge.net/DTD/sodipodi-0.dtd"
   xmlns="http://www.w3.org/2000/svg"
   xmlns:svg="http://www.w3.org/2000/svg">
  <sodipodi:namedview
     id="namedview14"
     pagecolor="#ffffff"
     bordercolor="#000000"
     borderopacity="0.25"
     inkscape:showpageshadow="2"
     inkscape:pageopacity="0.0"
     inkscape:pagecheckerboard="0"
     inkscape:deskcolor="#d1d1d1">
    <inkscape:page
       x="0"
       y="0"
       width="329923.19"
       height="329913.62"
       id="page2"
       margin="0"
       bleed="0" />
  </sodipodi:namedview>
  <defs
     id="defs4">
    <style
       id="style1">
      .cls-1 {
        fill: url(#linear-gradient);
      }

      .cls-1, .cls-2 {
        fill-rule: evenodd;
      }

      .cls-3 {
        fill: none;
      }

      .cls-3, .cls-4, .cls-5, .cls-2, .cls-6, .cls-7 {
        stroke-width: 0px;
      }

      .cls-8 {
        clip-path: url(#clippath-1);
      }

      .cls-4, .cls-2 {
        fill: #fff;
      }

      .cls-5 {
        fill: url(#New_Gradient_Swatch_1);
      }

      .cls-6 {
        fill: #f1f2f2;
      }

      .cls-7 {
        fill: #25d366;
      }
    </style>
    <linearGradient
       id="New_Gradient_Swatch_1"
       data-name="New Gradient Swatch 1"
       x1="153.92"
       y1="566.28998"
       x2="425.82999"
       y2="566.28998"
       gradientUnits="userSpaceOnUse"
       gradientTransform="translate(-476044.81,-21964.799)">
      <stop
         offset="0"
         stop-color="#20b038"
         id="stop1" />
      <stop
         offset="1"
         stop-color="#60d66a"
         id="stop2" />
    </linearGradient>
    <linearGradient
       id="linear-gradient"
       x1="667.71002"
       y1="366.54999"
       x2="667.71002"
       y2="22.879999"
       gradientUnits="userSpaceOnUse">
      <stop
         offset="0"
         stop-color="#25cf43"
         id="stop3" />
      <stop
         offset="1"
         stop-color="#61fd7d"
         id="stop4" />
    </linearGradient>
    <clipPath
       id="clippath-1">
      <rect
         class="cls-3"
         x="144.52"
         y="791.90002"
         width="655.96997"
         height="144.31"
         id="rect4" />
    </clipPath>
  </defs>
  <path
     class="cls-6"
     d="m -475830.43,-21256.219 c 22.52,11.97 48.22,18.76 75.5,18.76 88.95,0 161.05,-72.1 161.05,-161.05 0,-88.95 -72.11,-161.05 -161.05,-161.05 -88.94,0 -161.05,72.11 -161.05,161.05 0,31.48 9.03,60.84 24.64,85.65 l -31.98,85.4 z"
     id="path4" />
  <path
     class="cls-5"
     d="m -475754.93,-21262.559 c -22.22,0 -44.25,-5.47 -63.72,-15.82 l -9.22,-4.9 -54.01,16.72 18.4,-49.14 -6.62,-10.52 c -13.6,-21.61 -20.79,-46.61 -20.79,-72.29 0,-74.97 60.99,-135.96 135.96,-135.96 74.97,0 135.96,60.99 135.96,135.96 0,74.97 -60.99,135.96 -135.96,135.96 z"
     id="path5"
     style="fill:url(#New_Gradient_Swatch_1)" />
  <path
     class="cls-4"
     d="m -475813.75,-21472.209 h 17.26 c 0,0 14.98,29.95 16.24,33 1.27,3.05 2.54,13.45 -11.42,23.86 0,0 13.13,36.97 57.36,53.3 0,0 13.71,-14.47 14.47,-15.48 0.76,-1.02 4.67,-6.13 10.66,-3.05 0,0 22,12.63 27.92,15.99 5.29,3.01 4.06,5.58 3.81,8.63 -0.25,3.05 -5.2,34.92 -44.79,30.6 -39.59,-4.31 -97.34,-61.57 -108.77,-101.93 0,0 -6.85,-29.7 17.26,-44.93 z"
     id="path6" />
  <g
     id="g8"
     transform="translate(-476044.81,-21964.799)">
    <g
       id="Icon_Shape"
       data-name="Icon Shape">
      <path
         class="cls-1"
         d="m 839.52,279.33 c 0,1.88 -0.06,5.96 -0.17,9.11 -0.28,7.71 -0.89,17.67 -1.81,22.2 -1.39,6.81 -3.49,13.25 -6.22,18.6 -3.24,6.33 -7.36,12.01 -12.27,16.9 -4.89,4.89 -10.56,9 -16.89,12.22 -5.38,2.74 -11.85,4.84 -18.71,6.23 -4.49,0.91 -14.37,1.51 -22.03,1.78 -3.16,0.11 -7.24,0.17 -9.11,0.17 l -169.22,-0.03 c -1.88,0 -5.96,-0.06 -9.11,-0.17 -7.71,-0.28 -17.67,-0.89 -22.2,-1.81 -6.81,-1.39 -13.25,-3.49 -18.6,-6.22 -6.33,-3.24 -12.01,-7.36 -16.9,-12.27 -4.89,-4.89 -9,-10.56 -12.22,-16.89 -2.74,-5.38 -4.84,-11.85 -6.23,-18.71 -0.91,-4.49 -1.51,-14.37 -1.78,-22.03 -0.11,-3.16 -0.17,-7.24 -0.17,-9.11 l 0.03,-169.22 c 0,-1.88 0.06,-5.96 0.17,-9.11 0.28,-7.71 0.89,-17.67 1.81,-22.2 1.39,-6.81 3.49,-13.25 6.22,-18.6 3.24,-6.33 7.36,-12.01 12.27,-16.9 4.89,-4.89 10.56,-9 16.89,-12.22 5.38,-2.74 11.85,-4.84 18.71,-6.22 4.49,-0.91 14.37,-1.51 22.03,-1.78 3.16,-0.11 7.24,-0.17 9.11,-0.17 l 169.22,0.03 c 1.88,0 5.96,0.06 9.11,0.17 7.71,0.28 17.67,0.89 22.2,1.81 6.81,1.39 13.25,3.49 18.6,6.22 6.33,3.24 12.01,7.36 16.9,12.27 4.89,4.89 9,10.56 12.22,16.89 2.74,5.38 4.84,11.85 6.23,18.71 0.91,4.49 1.51,14.37 1.78,22.03 0.11,3.16 0.17,7.24 0.17,9.11 l -0.03,169.22 z"
         id="path7"
         style="fill:url(#linear-gradient)" />
    </g>
    <g
       id="WA_Logo"
       data-name="WA Logo">
      <path
         class="cls-2"
         d="M 758.09,105.14 C 734.96,81.99 704.2,69.24 671.43,69.22 c -67.52,0 -122.48,54.93 -122.51,122.46 0,21.58 5.63,42.65 16.35,61.22 l -17.38,63.46 64.94,-17.03 c 17.89,9.76 38.04,14.9 58.54,14.91 h 0.05 c 0,0 0,0 0,0 67.52,0 122.48,-54.94 122.5,-122.46 0.01,-32.72 -12.72,-63.49 -35.85,-86.64 z m -86.66,188.42 h -0.04 c -18.27,0 -36.19,-4.91 -51.82,-14.19 l -3.72,-2.21 -38.54,10.11 10.29,-37.56 -2.42,-3.85 c -10.19,-16.21 -15.58,-34.94 -15.57,-54.17 0.02,-56.12 45.7,-101.78 101.86,-101.78 27.2,0.01 52.76,10.61 71.99,29.85 19.22,19.24 29.8,44.81 29.79,72.01 -0.02,56.13 -45.7,101.79 -101.82,101.79 z m 55.85,-76.23 c -3.06,-1.53 -18.11,-8.93 -20.92,-9.96 -2.81,-1.02 -4.85,-1.53 -6.89,1.53 -2.04,3.06 -7.91,9.96 -9.69,12 -1.79,2.04 -3.57,2.3 -6.63,0.77 -3.06,-1.53 -12.92,-4.76 -24.62,-15.19 -9.1,-8.11 -15.24,-18.13 -17.03,-21.2 -1.79,-3.06 -0.19,-4.72 1.34,-6.24 1.38,-1.37 3.06,-3.57 4.59,-5.36 1.53,-1.79 2.04,-3.06 3.06,-5.11 1.02,-2.04 0.51,-3.83 -0.26,-5.36 -0.77,-1.53 -6.89,-16.59 -9.44,-22.72 -2.48,-5.97 -5.01,-5.16 -6.89,-5.25 -1.78,-0.09 -3.83,-0.11 -5.87,-0.11 -2.04,0 -5.36,0.77 -8.16,3.83 -2.81,3.06 -10.71,10.47 -10.71,25.53 0,15.06 10.97,29.61 12.5,31.65 1.53,2.04 21.58,32.95 52.29,46.2 7.3,3.15 13,5.04 17.45,6.45 7.33,2.33 14.01,2 19.28,1.21 5.88,-0.88 18.11,-7.4 20.66,-14.55 2.55,-7.15 2.55,-13.27 1.79,-14.55 -0.76,-1.28 -2.81,-2.04 -5.87,-3.57 z"
         id="path8" />
    </g>
  </g>
  <rect
     id="background"
     class="cls-7"
     x="-475540.78"
     y="-21552.408"
     width="325.79999"
     height="325.79999"
     rx="8.8400002"
     ry="8.8400002" />
  <g
     id="WA_Logo-2"
     data-name="WA Logo"
     transform="translate(-476044.81,-21964.799)">
    <path
       class="cls-2"
       d="m 752,494.91 c -21.95,-21.97 -51.14,-34.08 -82.24,-34.09 -64.08,0 -116.23,52.15 -116.26,116.25 0,20.49 5.34,40.49 15.52,58.12 l -16.49,60.24 61.63,-16.17 c 16.98,9.26 36.1,14.14 55.56,14.15 h 0.05 c 0,0 0,0 0,0 64.07,0 116.23,-52.15 116.25,-116.25 0.01,-31.06 -12.07,-60.27 -34.02,-82.25 z m -82.23,178.86 h -0.04 c -17.34,0 -34.34,-4.66 -49.18,-13.47 l -3.53,-2.09 -36.57,9.59 9.76,-35.66 -2.3,-3.66 c -9.67,-15.38 -14.78,-33.17 -14.77,-51.42 0.02,-53.28 43.37,-96.62 96.67,-96.62 25.81,0 50.07,10.07 68.31,28.34 18.24,18.26 28.28,42.54 28.27,68.36 -0.02,53.28 -43.37,96.63 -96.63,96.63 z m 53,-72.37 c -2.9,-1.45 -17.19,-8.48 -19.85,-9.45 -2.66,-0.97 -4.6,-1.45 -6.54,1.45 -1.94,2.91 -7.5,9.45 -9.2,11.39 -1.69,1.94 -3.39,2.18 -6.29,0.73 -2.9,-1.45 -12.26,-4.52 -23.36,-14.42 -8.64,-7.7 -14.47,-17.21 -16.16,-20.12 -1.69,-2.91 -0.18,-4.48 1.27,-5.93 1.31,-1.3 2.91,-3.39 4.36,-5.09 1.45,-1.7 1.94,-2.91 2.9,-4.85 0.97,-1.94 0.48,-3.64 -0.24,-5.09 -0.73,-1.45 -6.54,-15.75 -8.96,-21.57 -2.36,-5.66 -4.75,-4.9 -6.54,-4.99 -1.69,-0.08 -3.63,-0.1 -5.57,-0.1 -1.94,0 -5.08,0.73 -7.75,3.63 -2.66,2.91 -10.17,9.94 -10.17,24.23 0,14.29 10.41,28.11 11.86,30.05 1.45,1.94 20.48,31.28 49.62,43.86 6.93,2.99 12.34,4.78 16.56,6.12 6.96,2.21 13.29,1.9 18.3,1.15 5.58,-0.83 17.19,-7.03 19.61,-13.81 2.42,-6.79 2.42,-12.6 1.69,-13.81 -0.73,-1.21 -2.66,-1.94 -5.57,-3.39 z"
       id="path9" />
  </g>
  <g
     class="cls-8"
     clip-path="url(#clippath-1)"
     id="g13"
     transform="translate(-476044.81,-21964.799)">
    <g
       id="g12">
      <path
         class="cls-7"
         d="m 403.41,875.85 h -0.19 l -12.1,-47.87 h -14.58 l -12.35,47.29 h -0.2 l -11.18,-47.26 h -15.54 l 18.75,69.43 h 15.77 l 11.8,-47.26 h 0.2 l 12.01,47.26 h 15.48 l 19.02,-69.43 h -15.28 l -11.59,47.84 z m 74.38,-24.36 c -1.49,-1.86 -3.46,-3.31 -5.7,-4.19 -2.96,-1.09 -6.11,-1.6 -9.27,-1.5 -2.83,0.04 -5.62,0.73 -8.14,1.99 -2.88,1.41 -5.26,3.63 -6.85,6.37 h -0.3 V 828 h -14.06 v 69.43 h 14.06 v -26.35 c 0,-5.12 0.86,-8.8 2.58,-11.04 1.72,-2.24 4.5,-3.36 8.33,-3.35 3.37,0 5.72,1.02 7.04,3.07 1.32,2.05 1.98,5.14 1.98,9.28 v 28.39 h 14.06 v -30.92 c 0.02,-2.86 -0.26,-5.71 -0.84,-8.51 -0.46,-2.35 -1.44,-4.58 -2.89,-6.51 z m 58.03,34.75 v -26.11 c 0,-3.05 -0.69,-5.5 -2.08,-7.35 -1.39,-1.86 -3.23,-3.35 -5.35,-4.35 -2.29,-1.06 -4.73,-1.77 -7.25,-2.08 -2.6,-0.35 -5.22,-0.53 -7.84,-0.54 -2.85,0 -5.69,0.27 -8.49,0.82 -2.67,0.5 -5.24,1.43 -7.59,2.77 -2.23,1.27 -4.13,3.04 -5.55,5.15 -1.55,2.43 -2.41,5.21 -2.49,8.07 h 14.06 c 0.27,-2.72 1.2,-4.67 2.78,-5.8 1.58,-1.13 3.8,-1.77 6.59,-1.77 1.18,0 2.35,0.07 3.52,0.24 1.02,0.13 2,0.46 2.88,0.97 0.84,0.49 1.52,1.2 1.98,2.05 0.55,1.1 0.8,2.32 0.74,3.55 0.07,0.6 0,1.22 -0.23,1.78 -0.22,0.57 -0.59,1.07 -1.06,1.47 -1.12,0.83 -2.41,1.41 -3.79,1.69 -1.79,0.43 -3.62,0.72 -5.46,0.88 -2.06,0.2 -4.14,0.46 -6.25,0.78 -2.12,0.33 -4.23,0.77 -6.3,1.32 -1.98,0.5 -3.87,1.34 -5.56,2.47 -1.66,1.15 -3.02,2.67 -3.97,4.42 -1.1,2.19 -1.63,4.61 -1.53,7.05 -0.06,2.31 0.4,4.6 1.34,6.71 0.84,1.82 2.11,3.42 3.7,4.67 1.65,1.26 3.53,2.19 5.55,2.72 2.23,0.6 4.53,0.9 6.85,0.88 3.16,0 6.3,-0.46 9.32,-1.36 3.02,-0.9 5.75,-2.54 7.94,-4.77 0.06,0.83 0.18,1.66 0.35,2.48 0.16,0.81 0.38,1.6 0.64,2.38 h 14.29 c -0.79,-1.44 -1.26,-3.03 -1.39,-4.66 -0.26,-2.17 -0.38,-4.35 -0.36,-6.53 z m -14.06,-8.26 c -0.02,1.04 -0.1,2.08 -0.24,3.11 -0.19,1.36 -0.64,2.66 -1.34,3.84 -0.82,1.35 -1.98,2.47 -3.37,3.26 -1.51,0.91 -3.66,1.36 -6.45,1.36 -1.1,0 -2.19,-0.1 -3.27,-0.3 -0.98,-0.16 -1.93,-0.51 -2.78,-1.02 -0.8,-0.49 -1.45,-1.17 -1.89,-1.99 -0.49,-0.96 -0.73,-2.03 -0.7,-3.11 -0.04,-1.11 0.2,-2.21 0.7,-3.21 0.45,-0.82 1.07,-1.53 1.84,-2.09 0.81,-0.58 1.72,-1.02 2.68,-1.31 1.02,-0.32 2.07,-0.58 3.12,-0.78 1.12,-0.19 2.22,-0.36 3.37,-0.49 1.15,-0.12 2.22,-0.3 3.23,-0.49 0.97,-0.18 1.94,-0.42 2.88,-0.73 0.82,-0.25 1.57,-0.66 2.22,-1.21 v 5.14 z m 40.38,-45.9 h -14.06 v 15.08 h -8.57 v 9.24 h 8.53 v 29.66 c -0.09,2.11 0.35,4.22 1.29,6.12 0.8,1.51 2.02,2.77 3.52,3.63 1.6,0.88 3.36,1.46 5.18,1.7 2.05,0.3 4.12,0.44 6.19,0.44 1.4,0 2.81,0 4.27,-0.09 1.33,-0.05 2.65,-0.18 3.97,-0.39 v -10.72 c -0.69,0.14 -1.39,0.24 -2.09,0.3 -0.74,0.07 -1.48,0.1 -2.28,0.1 -2.38,0 -3.97,-0.4 -4.77,-1.17 -0.8,-0.78 -1.18,-2.33 -1.18,-4.66 v -24.89 h 10.32 v -9.24 h -10.34 l 0.02,-15.08 z m 58.23,43.32 c -0.92,-1.58 -2.19,-2.94 -3.7,-3.99 -1.59,-1.1 -3.33,-1.97 -5.18,-2.58 -1.95,-0.64 -3.95,-1.19 -6,-1.65 -2.05,-0.46 -3.93,-0.88 -5.85,-1.26 -1.73,-0.34 -3.44,-0.78 -5.11,-1.31 -1.32,-0.4 -2.55,-1.04 -3.61,-1.9 -0.45,-0.36 -0.81,-0.83 -1.05,-1.35 -0.24,-0.52 -0.36,-1.09 -0.34,-1.66 -0.05,-0.89 0.22,-1.76 0.77,-2.47 0.52,-0.63 1.19,-1.12 1.94,-1.45 0.8,-0.33 1.66,-0.54 2.52,-0.63 0.86,-0.08 1.73,-0.11 2.59,-0.09 2.27,-0.06 4.52,0.43 6.56,1.41 1.84,0.94 2.87,2.73 3.06,5.4 h 13.4 c -0.14,-2.74 -0.98,-5.4 -2.44,-7.74 -1.3,-1.99 -3.05,-3.67 -5.11,-4.9 -2.15,-1.27 -4.52,-2.16 -6.99,-2.63 -2.66,-0.52 -5.36,-0.78 -8.08,-0.78 -2.73,0 -5.46,0.24 -8.14,0.73 -2.51,0.44 -4.93,1.29 -7.14,2.53 -2.1,1.18 -3.86,2.87 -5.11,4.9 -1.38,2.43 -2.05,5.2 -1.93,7.98 -0.06,1.95 0.42,3.89 1.39,5.59 0.93,1.52 2.19,2.82 3.7,3.79 1.6,1.04 3.35,1.86 5.18,2.43 1.95,0.62 3.95,1.15 6,1.6 3.99,0.76 7.92,1.8 11.76,3.12 2.81,1.03 4.22,2.59 4.22,4.66 0.04,1.09 -0.27,2.16 -0.9,3.06 -0.58,0.8 -1.34,1.46 -2.22,1.94 -0.93,0.5 -1.92,0.86 -2.96,1.07 -1.03,0.23 -2.07,0.34 -3.12,0.35 -1.35,0 -2.7,-0.16 -4.01,-0.49 -1.23,-0.3 -2.39,-0.81 -3.43,-1.51 -1,-0.69 -1.83,-1.59 -2.44,-2.63 -0.65,-1.18 -0.98,-2.5 -0.94,-3.84 h -13.44 c 0.01,2.96 0.82,5.86 2.33,8.41 1.37,2.19 3.24,4.03 5.46,5.4 2.34,1.4 4.91,2.38 7.59,2.9 2.87,0.59 5.79,0.88 8.72,0.88 2.88,0 5.76,-0.27 8.59,-0.83 2.66,-0.5 5.2,-1.49 7.49,-2.9 2.36,-1.43 4.29,-3.46 5.58,-5.87 1.29,-2.41 1.9,-5.12 1.76,-7.84 0.07,-2.03 -0.41,-4.05 -1.38,-5.85 h 0.02 z m 27.97,-47.41 -26.78,69.43 h 15.67 l 5.56,-15.46 h 26.48 l 5.35,15.46 h 16.18 l -26.51,-69.41 h -15.96 z m -1.48,42.59 9.23,-25.47 h 0.19 l 8.93,25.47 h -18.36 z m 92.6,-16.61 c -1.93,-2.48 -4.41,-4.51 -7.25,-5.93 -3.23,-1.56 -6.8,-2.33 -10.41,-2.23 -3.02,-0.04 -6,0.59 -8.73,1.84 -2.72,1.32 -4.98,3.39 -6.51,5.95 h -0.2 v -6.44 h -13.4 v 67.88 h 14.06 v -23.82 h 0.19 c 1.65,2.41 3.93,4.34 6.6,5.59 2.74,1.28 5.74,1.93 8.78,1.9 3.42,0.06 6.8,-0.68 9.87,-2.18 2.75,-1.38 5.16,-3.34 7.05,-5.74 1.92,-2.47 3.35,-5.27 4.22,-8.26 0.93,-3.16 1.39,-6.43 1.38,-9.72 0.01,-3.47 -0.45,-6.92 -1.38,-10.26 -0.85,-3.1 -2.3,-6 -4.27,-8.57 z m -9.03,24.41 c -0.35,1.8 -1.04,3.52 -2.04,5.08 -1.68,2.31 -4.16,3.95 -6.98,4.6 -2.82,0.65 -5.79,0.28 -8.35,-1.05 -1.54,-0.87 -2.85,-2.09 -3.82,-3.55 -1,-1.56 -1.7,-3.28 -2.08,-5.08 -0.43,-1.95 -0.65,-3.93 -0.64,-5.93 0,-2.03 0.19,-4.05 0.59,-6.03 0.36,-1.83 1.05,-3.57 2.04,-5.16 0.95,-1.48 2.24,-2.72 3.77,-3.63 1.76,-1.01 3.77,-1.51 5.8,-1.45 2,-0.05 3.98,0.45 5.7,1.45 1.55,0.93 2.85,2.19 3.82,3.69 1.02,1.6 1.74,3.36 2.13,5.2 0.43,1.95 0.65,3.94 0.64,5.94 0.01,1.98 -0.17,3.96 -0.56,5.91 h -0.03 z m 69.44,-15.8 c -0.85,-3.11 -2.3,-6.03 -4.27,-8.6 -1.93,-2.48 -4.4,-4.51 -7.24,-5.93 -3.23,-1.56 -6.81,-2.33 -10.41,-2.23 -3.01,-0.04 -6,0.59 -8.73,1.84 -2.72,1.32 -4.99,3.39 -6.52,5.95 h -0.19 v -6.44 h -13.43 v 67.88 h 14.06 v -23.82 h 0.2 c 1.65,2.4 3.93,4.33 6.6,5.59 2.74,1.28 5.74,1.93 8.78,1.9 3.42,0.06 6.81,-0.68 9.87,-2.18 2.75,-1.38 5.16,-3.34 7.04,-5.74 1.92,-2.47 3.35,-5.27 4.22,-8.26 0.94,-3.16 1.4,-6.43 1.39,-9.72 0.03,-3.45 -0.42,-6.89 -1.34,-10.23 h -0.03 z m -13.32,15.8 c -0.35,1.8 -1.04,3.53 -2.04,5.08 -1.04,1.56 -2.46,2.84 -4.13,3.73 -1.67,0.89 -3.54,1.35 -5.44,1.35 -1.9,0 -3.77,-0.46 -5.44,-1.35 -1.67,-0.89 -3.09,-2.17 -4.13,-3.73 -1,-1.56 -1.7,-3.28 -2.08,-5.08 -0.43,-1.95 -0.65,-3.93 -0.64,-5.93 0,-2.03 0.19,-4.05 0.59,-6.03 0.38,-1.83 1.11,-3.58 2.13,-5.16 0.95,-1.48 2.24,-2.72 3.77,-3.63 1.76,-1.01 3.77,-1.51 5.8,-1.45 2,-0.05 3.98,0.45 5.7,1.45 1.55,0.93 2.86,2.19 3.83,3.69 1.02,1.6 1.74,3.36 2.13,5.2 0.43,1.95 0.65,3.94 0.64,5.94 -0.01,1.99 -0.22,3.97 -0.63,5.91 h -0.06 z"
         id="path10" />
      <path
         class="cls-7"
         d="m 311.34,860.81 c -0.69,-18.43 -8.61,-35.89 -22.12,-48.73 -13.51,-12.84 -31.56,-20.07 -50.38,-20.18 h -0.36 c -12.67,0 -25.13,3.22 -36.15,9.36 -11.02,6.14 -20.21,14.99 -26.68,25.67 -6.47,10.68 -9.99,22.83 -10.21,35.24 -0.22,12.42 2.85,24.68 8.93,35.58 l -6.45,37.85 c -0.01,0.08 0,0.16 0.02,0.23 0.02,0.07 0.06,0.14 0.11,0.2 0.05,0.06 0.12,0.11 0.19,0.14 0.07,0.03 0.15,0.05 0.23,0.05 h 0.11 l 38.2,-8.33 c 9.87,4.64 20.68,7.05 31.63,7.05 h 2.09 c 9.63,-0.27 19.11,-2.41 27.9,-6.28 8.78,-3.88 16.7,-9.42 23.28,-16.32 6.59,-6.89 11.71,-14.99 15.09,-23.84 3.37,-8.84 4.93,-18.26 4.57,-27.69 z m -71.2,61.69 h -1.72 c -9.68,0.01 -19.21,-2.26 -27.81,-6.61 l -1.95,-1 -25.91,6 4.78,-25.68 -1.11,-1.84 c -5.3,-8.86 -8.16,-18.92 -8.29,-29.19 -0.13,-10.27 2.48,-20.4 7.56,-29.38 5.08,-8.98 12.46,-16.52 21.41,-21.86 8.95,-5.34 19.17,-8.3 29.65,-8.59 h 1.75 c 15.82,0.05 30.99,6.18 42.23,17.08 11.25,10.9 17.68,25.69 17.9,41.19 0.22,15.5 -5.78,30.47 -16.71,41.67 -10.93,11.21 -25.91,17.76 -41.72,18.24 l -0.07,-0.02 z"
         id="path11" />
      <path
         class="cls-7"
         d="m 213.04,828.89 c -0.9,0.02 -1.79,0.21 -2.61,0.57 -0.82,0.36 -1.57,0.88 -2.18,1.52 -1.74,1.75 -6.6,5.95 -6.88,14.79 -0.28,8.83 6.02,17.57 6.9,18.8 0.88,1.23 12.04,20.31 30.43,28.05 10.81,4.56 15.54,5.35 18.62,5.35 1.27,0 2.22,-0.13 3.22,-0.19 3.37,-0.2 10.97,-4.02 12.63,-8.17 1.66,-4.15 1.77,-7.78 1.33,-8.5 -0.44,-0.73 -1.64,-1.25 -3.44,-2.18 -1.81,-0.93 -10.67,-5.57 -12.33,-6.22 -0.62,-0.28 -1.28,-0.45 -1.96,-0.5 -0.44,0.02 -0.87,0.15 -1.25,0.37 -0.38,0.22 -0.7,0.53 -0.93,0.9 -1.48,1.81 -4.88,5.73 -6.02,6.86 -0.25,0.28 -0.56,0.51 -0.9,0.67 -0.34,0.16 -0.72,0.24 -1.1,0.25 -0.7,-0.03 -1.38,-0.21 -2.01,-0.53 -5.37,-2.23 -10.26,-5.43 -14.43,-9.43 -3.89,-3.76 -7.2,-8.06 -9.8,-12.77 -1.01,-1.83 0,-2.77 0.92,-3.63 0.92,-0.86 1.9,-2.04 2.85,-3.06 0.78,-0.87 1.43,-1.85 1.92,-2.9 0.26,-0.49 0.39,-1.03 0.38,-1.58 0,-0.55 -0.16,-1.09 -0.43,-1.57 -0.44,-0.91 -3.7,-9.9 -5.23,-13.51 -1.24,-3.08 -2.72,-3.18 -4.02,-3.28 -1.07,-0.07 -2.29,-0.11 -3.51,-0.15 h -0.16"
         id="path12" />
    </g>
  </g>
  <path
     class="cls-7"
     d="m -475602.14,-21777.239 c -1.51,-40.57 -18.96,-79 -48.7,-107.26 -29.74,-28.26 -69.47,-44.18 -110.9,-44.42 h -0.78 c -27.9,-0.02 -55.32,7.08 -79.57,20.59 -24.25,13.52 -44.49,32.99 -58.73,56.5 -14.24,23.51 -21.99,50.25 -22.48,77.58 -0.49,27.33 6.28,54.32 19.66,78.31 l -14.21,83.31 c 0,0.17 0,0.35 0,0.51 0,0.16 0.14,0.32 0.25,0.45 0.12,0.13 0.26,0.23 0.42,0.31 0.16,0.08 0.33,0.11 0.51,0.11 h 0.24 l 84.09,-18.33 c 21.73,10.22 45.52,15.53 69.62,15.52 h 4.59 c 21.2,-0.59 42.07,-5.3 61.41,-13.83 19.34,-8.54 36.76,-20.75 51.25,-35.92 14.5,-15.17 25.78,-33.01 33.21,-52.47 7.43,-19.47 10.84,-40.19 10.06,-60.96 z m -156.73,135.79 h -3.8 c -21.3,0.03 -42.3,-4.97 -61.21,-14.56 l -4.3,-2.2 -57.03,13.2 10.53,-56.54 -2.44,-4.06 c -11.67,-19.5 -17.96,-41.65 -18.24,-64.26 -0.28,-22.61 5.45,-44.9 16.63,-64.68 11.18,-19.78 27.43,-36.36 47.14,-48.11 19.71,-11.75 42.2,-18.27 65.27,-18.91 h 3.86 c 34.82,0.1 68.21,13.6 92.97,37.6 24.76,23.99 38.91,56.56 39.4,90.68 0.49,34.12 -12.71,67.06 -36.77,91.73 -24.06,24.67 -57.04,39.09 -91.85,40.15 l -0.15,-0.05 z"
     id="path13" />
  <path
     class="cls-7"
     d="m -475818.51,-21847.499 c -1.98,0.04 -3.94,0.47 -5.76,1.26 -1.82,0.79 -3.45,1.93 -4.8,3.36 -3.83,3.85 -14.53,13.11 -15.15,32.56 -0.62,19.45 13.25,38.69 15.19,41.39 1.94,2.7 26.51,44.71 66.98,61.74 23.79,10.04 34.22,11.77 40.98,11.77 2.79,0 4.89,-0.29 7.09,-0.42 7.41,-0.45 24.15,-8.85 27.8,-17.98 3.65,-9.13 3.89,-17.12 2.93,-18.71 -0.96,-1.6 -3.6,-2.75 -7.58,-4.79 -3.98,-2.04 -23.48,-12.26 -27.14,-13.7 -1.36,-0.62 -2.82,-0.99 -4.32,-1.1 -0.97,0.05 -1.92,0.33 -2.76,0.82 -0.84,0.49 -1.54,1.17 -2.05,1.99 -3.26,3.98 -10.74,12.61 -13.25,15.1 -0.55,0.62 -1.22,1.12 -1.98,1.46 -0.76,0.35 -1.58,0.53 -2.42,0.55 -1.54,-0.07 -3.05,-0.46 -4.42,-1.17 -11.81,-4.92 -22.58,-11.96 -31.76,-20.76 -8.57,-8.28 -15.84,-17.75 -21.57,-28.12 -2.21,-4.02 0,-6.1 2.02,-7.98 2.02,-1.88 4.19,-4.49 6.27,-6.74 1.71,-1.92 3.14,-4.07 4.24,-6.39 0.57,-1.07 0.86,-2.27 0.84,-3.48 0,-1.21 -0.35,-2.4 -0.95,-3.45 -0.96,-2.01 -8.15,-21.79 -11.52,-29.73 -2.74,-6.79 -6,-7.01 -8.85,-7.22 -2.35,-0.16 -5.04,-0.24 -7.72,-0.32 h -0.34"
     id="path14" />
</svg>
